<svg width="323" height="355" viewBox="0 0 323 355" fill="none" xmlns="http://www.w3.org/2000/svg">
<path d="M152.464 28C135.964 80.5 116.151 135.081 172.964 196C219.699 247.187 253.272 253.258 321.964 237C267.216 379.669 113.661 384.633 32.4639 292.5C-39.0361 190.5 10.4635 41 152.464 28Z" fill="#FBE2A7"/>
<path d="M172.964 196L32.4639 292.5C113.661 384.633 267.216 379.669 321.964 237C241.464 247 211.964 237 172.964 196Z" fill="#F0DB70"/>
<path d="M208.464 51.6176C235.787 40.138 243.836 29.0468 243.964 0C244.364 24.736 249.211 37.0309 279.464 51.6176C252.926 53.4183 245.795 62.4831 243.964 90C242.647 60.3637 233.625 53.4126 208.464 51.6176Z" fill="#FBE2A7"/>
<path d="M286.464 103.809C300.318 98.069 304.399 92.5234 304.464 78C304.667 90.368 307.124 96.5154 322.464 103.809C309.008 104.709 305.392 109.242 304.464 123C303.796 108.182 299.222 104.706 286.464 103.809Z" fill="#FBE2A7"/>
</svg>
