<svg width="513" height="513" viewBox="0 0 513 513" fill="none" xmlns="http://www.w3.org/2000/svg">
<path d="M437.609 455.86C437.62 467.376 429.933 476.719 420.438 476.728L91.8941 477.049C82.3995 477.058 74.6936 467.73 74.6823 456.214L74.293 57.7214C74.2817 46.2054 81.9692 36.8626 91.4637 36.8534L333.201 36.6174L437.295 134.269L437.609 455.86Z" fill="#DCE5F7"/>
<path d="M91.9014 483.979H91.8742C78.5885 483.979 67.7664 471.526 67.7531 456.223L67.3638 57.7307C67.3571 50.5567 69.6987 43.7515 73.9628 38.5708C78.4772 33.0818 84.8556 29.9313 91.4582 29.9246L333.194 29.6876H333.201C334.964 29.6876 336.659 30.3575 337.942 31.5624L442.037 129.214C442.727 129.862 443.277 130.644 443.653 131.513C444.03 132.381 444.225 133.317 444.226 134.263L444.541 455.852C444.555 471.168 433.746 483.641 420.45 483.661L91.9014 483.979ZM330.463 43.5514L91.4721 43.7848C88.1185 43.7884 85.7702 46.0387 84.6669 47.3785C82.474 50.0417 81.222 53.8082 81.2255 57.7169L81.6149 456.21C81.6215 463.749 86.3185 470.118 91.8753 470.118V477.048L91.8855 470.118L420.434 469.8C425.994 469.793 430.688 463.411 430.681 455.865L430.37 137.275L330.463 43.5514Z" fill="#4E6DC4"/>
<path d="M437.61 136.81L349.879 136.896C340.385 136.905 332.679 127.577 332.668 116.061L332.593 39.1611L437.61 136.81Z" fill="#BED3F4"/>
<path d="M349.887 143.826H349.864C336.578 143.826 325.753 131.373 325.736 116.067L325.662 39.1694C325.66 37.8197 326.053 36.499 326.792 35.3694C327.531 34.2399 328.583 33.3507 329.821 32.811C332.335 31.7076 335.282 32.2016 337.313 34.0867L442.331 131.736C443.35 132.683 444.06 133.916 444.369 135.273C444.677 136.63 444.57 138.048 444.061 139.343C443.553 140.639 442.667 141.752 441.518 142.536C440.368 143.321 439.009 143.741 437.617 143.742L349.887 143.826ZM339.539 55.084L339.596 116.053C339.606 123.593 344.307 129.965 349.863 129.965V136.895L349.874 129.965L419.997 129.897L339.539 55.084Z" fill="#4E6DC4"/>
<path d="M237.31 188.505C240.725 188.233 243.27 185.249 242.997 181.832L242.012 169.471C241.74 166.054 238.755 163.51 235.339 163.783C231.922 164.055 229.378 167.039 229.65 170.456L230.635 182.817C230.908 186.235 233.894 188.778 237.31 188.505ZM284.062 196.077L292.105 186.641C294.326 184.033 294.014 180.121 291.408 177.9C288.801 175.679 284.891 175.991 282.669 178.597L274.625 188.034C272.403 190.641 272.715 194.552 275.321 196.773C277.93 198.996 281.841 198.684 284.062 196.077ZM167.217 245.513L179.579 244.528C182.996 244.256 185.539 241.271 185.267 237.854C184.994 234.437 182.01 231.894 178.594 232.166L166.232 233.151C165.42 233.216 164.629 233.439 163.903 233.809C163.178 234.18 162.533 234.689 162.004 235.309C161.476 235.929 161.075 236.647 160.825 237.421C160.574 238.196 160.479 239.013 160.544 239.825C160.816 243.241 163.8 245.786 167.217 245.513ZM294.799 225.925C295.655 229.244 299.034 231.237 302.351 230.38L314.359 227.283C317.678 226.427 319.67 223.048 318.814 219.73C317.958 216.411 314.58 214.419 311.262 215.275L299.254 218.373C295.936 219.229 293.943 222.606 294.799 225.925ZM192.62 204.717C195.226 206.938 199.138 206.627 201.359 204.02C203.581 201.414 203.27 197.503 200.662 195.279L191.227 187.237C188.618 185.015 184.707 185.327 182.486 187.934C180.264 190.54 180.575 194.451 183.183 196.673L192.62 204.717Z" fill="#4E6DC4"/>
<path d="M242.462 217.563C260.881 217.83 275.84 231.54 278.433 249.208C273.805 248.216 269.084 247.568 264.24 247.497C242.986 247.189 223.159 256.069 209.112 271.341C206.439 266.139 204.818 260.302 204.909 254.041C205.206 233.595 222.016 217.266 242.462 217.563Z" fill="white"/>
<path d="M209.113 278.272C208.805 278.272 208.494 278.252 208.182 278.208C207.076 278.059 206.023 277.645 205.111 277.001C204.2 276.357 203.457 275.502 202.947 274.509C199.55 267.89 197.878 260.97 197.979 253.938C198.325 230.057 218.033 210.63 241.91 210.63C264.171 210.948 282.139 226.748 285.29 248.199C285.453 249.306 285.346 250.436 284.977 251.493C284.608 252.55 283.989 253.501 283.172 254.266C281.513 255.819 279.205 256.446 276.982 255.985C272.37 254.997 268.171 254.486 264.14 254.428L263.172 254.422C244.693 254.422 226.848 262.299 214.213 276.032C213.564 276.738 212.776 277.302 211.898 277.688C211.02 278.074 210.072 278.273 209.113 278.272ZM242.354 224.494C225.563 224.494 212.074 237.793 211.841 254.141C211.817 255.741 211.933 257.339 212.186 258.919C226.514 247.15 244.571 240.561 263.172 240.561L264.343 240.568C265.738 240.588 267.142 240.652 268.567 240.757C263.626 231.102 253.728 224.659 242.361 224.493L242.354 224.494Z" fill="#4E6DC4"/>
<path d="M319.48 348.41C311.723 348.297 304.613 345.702 298.773 341.469C287.958 354.123 272 362.215 254.054 361.954C236.108 361.693 220.391 353.142 209.949 340.179C204.002 344.24 196.806 346.627 189.049 346.515C169.036 346.224 153.053 329.77 153.344 309.757C153.635 289.745 170.089 273.762 190.101 274.053C193.612 274.104 196.913 274.817 200.099 275.798C201.366 276.184 202.652 276.486 203.848 276.999C205.883 273.15 208.428 269.633 211.234 266.349C222.006 253.765 237.877 245.756 255.738 246.016C260.324 246.083 264.715 246.812 268.961 247.892C273.728 249.093 278.218 250.872 282.403 253.199C292.864 258.956 301.4 267.756 306.695 278.493C310.98 276.8 315.651 275.877 320.533 275.948C340.546 276.239 356.528 292.692 356.238 312.705C355.946 332.718 339.493 348.7 319.48 348.41Z" fill="white"/>
<path d="M254.905 368.889L253.951 368.882C236.781 368.639 220.527 361.471 208.518 349.025C202.632 351.939 196.152 353.453 189.584 353.451C177.419 353.275 166.644 348.633 158.611 340.358C150.581 332.091 146.249 321.185 146.415 309.655C146.757 286.201 166.113 267.118 189.564 267.118C193.49 267.169 196.925 267.694 200.708 268.753C202.238 266.458 203.981 264.171 205.97 261.846C218.352 247.376 236.186 239.078 254.893 239.078L255.84 239.085C260.575 239.156 265.427 239.84 270.676 241.176C275.946 242.499 281.021 244.505 285.771 247.142C295.835 252.679 304.13 260.581 310.021 270.191C313.294 269.408 316.646 269.013 320.011 269.013C344.43 269.362 363.512 289.006 363.17 312.802C362.829 336.26 343.472 355.346 320.018 355.346C312.708 355.237 305.977 353.525 299.95 350.344C287.825 362.195 271.713 368.889 254.905 368.889ZM209.945 333.249C211.975 333.249 213.983 334.139 215.346 335.831C225.001 347.814 239.142 354.805 254.15 355.021L254.905 355.028C269.621 355.028 283.693 348.443 293.503 336.964C295.848 334.223 299.912 333.733 302.839 335.858C307.79 339.445 313.58 341.391 319.58 341.479H319.586C335.941 341.479 349.078 328.528 349.308 312.603C349.541 296.448 336.587 283.112 320.432 282.878H320.405C316.314 282.878 312.699 283.572 309.238 284.939C307.619 285.578 305.82 285.584 304.197 284.958C302.575 284.332 301.246 283.118 300.477 281.558C295.83 272.13 288.423 264.425 279.063 259.271C275.352 257.213 271.389 255.648 267.273 254.615C263.067 253.542 259.27 253.001 255.635 252.947L254.891 252.94C240.238 252.94 226.246 259.472 216.5 270.858C213.745 274.077 211.61 277.146 209.972 280.242C208.28 283.433 204.422 284.79 201.106 283.365C200.507 283.108 199.871 282.946 199.234 282.766L198.08 282.428C194.984 281.474 192.422 281.017 189.999 280.983H189.996C173.641 280.983 160.504 293.937 160.274 309.858C160.16 317.685 163.1 325.09 168.555 330.704C174.006 336.314 181.319 339.472 189.15 339.583H189.167C195.444 339.583 201.129 337.81 206.04 334.457C207.19 333.668 208.551 333.247 209.945 333.249Z" fill="#4E6DC4"/>
</svg>
