<svg width="638" height="430" viewBox="0 0 638 430" fill="none" xmlns="http://www.w3.org/2000/svg">
<path d="M594.142 342.138H503.397C567.252 311.65 610.336 244.656 605.501 168.136C602.257 116.797 576.914 71.0906 539.054 40.3133L539.07 40.2971C528.546 31.7813 517.138 24.4705 505.007 18.4443C484.36 8.24133 461.624 1.89498 437.683 0.368511C357.504 -4.69188 287.691 42.869 259.493 111.96C259.499 111.961 259.507 111.962 259.513 111.964C257.47 116.973 255.651 122.091 254.059 127.312C253.559 127.237 253.048 127.207 252.547 127.139C253.039 127.203 253.54 127.233 254.03 127.303C255.637 122.082 257.484 116.941 259.493 111.96C252.182 110.674 244.55 109.95 236.838 109.95C164.694 109.95 106.127 168.435 106.127 240.58C106.127 244.275 106.368 247.971 106.61 251.667C98.2545 249.337 89.0957 248.695 79.6964 250.06C50.6948 254.478 27.8776 278.741 25.2272 307.903C24.0222 320.917 26.6726 333.209 32.1368 343.733C13.6572 348.876 0 365.908 0 385.992C0 388.644 0.241742 391.215 0.722734 393.704C3.85541 411.7 18.1556 425.919 36.1517 429.133C38.6426 429.615 41.2133 429.856 43.8637 429.856H149.508L149.51 429.853H594.14C618.262 429.853 637.997 410.118 637.997 385.996C638 361.874 618.264 342.138 594.142 342.138ZM124.574 273.211L112.859 270.006L124.572 273.188L124.574 273.211ZM82.1051 265.967C84.5961 265.566 87.087 265.405 89.5767 265.405C92.3306 265.405 95.1118 265.737 97.8881 266.229C95.1231 265.745 92.338 265.413 89.5431 265.413C87.0795 265.413 84.5774 265.605 82.1138 265.977C73.9744 267.211 66.4691 270.548 60.1589 275.389C66.4666 270.542 73.9694 267.203 82.1051 265.967ZM46.4332 336.328L49.4475 342.128L46.4357 336.343C46.1977 335.88 46.0469 335.386 45.8251 334.917C46.0469 335.381 46.1964 335.872 46.4332 336.328ZM32.1442 360.822C26.2502 363.576 21.6197 368.324 18.8559 374.051C21.6098 368.31 26.234 363.56 32.1442 360.822ZM38.2563 413.223C40.0619 413.593 41.9311 413.788 43.8438 413.788H165.571L165.568 413.79H43.865C41.9435 413.79 40.0681 413.594 38.2563 413.223Z" fill="url(#paint0_linear_245_152)"/>
<path d="M539.069 40.2981L384.016 195.351C376.223 196.636 368.672 198.805 361.603 201.858C347.302 155.583 308.017 120.475 259.493 111.96C287.691 42.8688 357.504 -4.69212 437.682 0.369508C461.623 1.89597 484.358 8.24233 505.004 18.4453C517.136 24.4702 528.544 31.7823 539.069 40.2981Z" fill="#FBE2A7"/>
<path d="M259.492 111.96C257.483 116.941 255.635 122.083 254.029 127.305C248.405 126.501 242.702 126.02 236.836 126.02C173.611 126.02 122.274 177.356 122.274 240.582C122.274 243.875 122.354 247.089 122.677 250.303L124.604 273.2L102.431 267.175C98.1735 265.97 93.8346 265.407 89.5779 265.407C87.087 265.407 84.5973 265.567 82.1064 265.969C60.4156 269.263 43.2233 287.5 41.2146 309.432C40.3311 318.752 42.179 328.071 46.4369 336.346L55.5945 353.939L36.4744 359.241C24.4234 362.536 16.0684 373.541 16.0684 385.994C16.0684 401.338 28.5206 413.79 43.865 413.79H165.577L149.51 429.857H43.865C41.2133 429.857 38.6426 429.616 36.1529 429.135C18.1568 425.921 3.85666 411.702 0.72398 393.706C0.241742 391.215 0 388.644 0 385.992C0 365.908 13.6572 348.876 32.1355 343.735C26.6726 333.21 24.021 320.919 25.2272 307.905C27.8776 278.742 50.6948 254.48 79.6964 250.061C89.0969 248.695 98.2545 249.338 106.61 251.668C106.368 247.973 106.127 244.277 106.127 240.582C106.127 168.438 164.694 109.951 236.838 109.951C244.55 109.951 252.182 110.674 259.492 111.96Z" fill="url(#paint1_linear_245_152)"/>
<path d="M346.273 206.583L351.553 223.603L358.895 220.463L384.024 195.335C376.213 196.633 368.696 198.8 361.621 201.824C347.293 155.622 308 120.436 259.522 111.934C257.474 116.952 255.652 122.08 254.056 127.313C297.126 133.749 333.058 163.959 346.273 206.583Z" fill="#F0DB70"/>
<path d="M346.273 206.583L351.553 223.603L358.895 220.463L384.024 195.335C376.213 196.633 368.696 198.8 361.621 201.824C347.293 155.622 308 120.436 259.522 111.934C257.474 116.952 255.652 122.08 254.056 127.313C297.126 133.749 333.058 163.959 346.273 206.583Z" fill="url(#paint2_linear_245_152)"/>
<path d="M246.578 191.499C245.16 169.054 247.918 147.445 254.057 127.313C248.416 126.47 242.664 125.991 236.813 125.991C173.633 125.991 122.237 177.395 122.237 240.574C122.237 243.854 122.386 247.098 122.653 250.306L124.576 273.211L102.404 267.146C98.1985 265.997 93.8684 265.413 89.5457 265.413C87.0821 265.413 84.58 265.605 82.1164 265.977C60.3995 269.268 43.1872 287.528 41.1947 309.395C40.3312 318.767 42.1517 328.079 46.4358 336.329L55.5759 353.919L36.4795 359.222C24.4522 362.561 16.0498 373.572 16.0498 385.998C16.0498 401.32 28.5157 413.788 43.8464 413.788H165.574L286.533 292.829C263.654 264.687 248.99 229.66 246.578 191.499Z" fill="url(#paint3_linear_245_152)"/>
<path opacity="0.3" d="M246.578 191.499C245.16 169.054 247.918 147.445 254.057 127.313C248.416 126.47 242.664 125.991 236.813 125.991C173.633 125.991 122.237 177.395 122.237 240.574C122.237 243.854 122.386 247.098 122.653 250.306L124.576 273.211L102.404 267.146C98.1985 265.997 93.8684 265.413 89.5457 265.413C87.0821 265.413 84.58 265.605 82.1164 265.977C60.3995 269.268 43.1872 287.528 41.1947 309.395C40.3312 318.767 42.1517 328.079 46.4358 336.329L55.5759 353.919L36.4795 359.222C24.4522 362.561 16.0498 373.572 16.0498 385.998C16.0498 401.32 28.5157 413.788 43.8464 413.788H165.574L286.533 292.829C263.654 264.687 248.99 229.66 246.578 191.499Z" fill="url(#paint4_linear_245_152)"/>
<path d="M246.578 191.499C248.989 229.66 263.655 264.687 286.532 292.829L358.896 220.465L351.554 223.605L346.274 206.584C333.059 163.962 297.127 133.75 254.058 127.314C247.918 147.445 245.16 169.052 246.578 191.499Z" fill="#F0DB70"/>
<path d="M246.578 191.499C248.989 229.66 263.655 264.687 286.532 292.829L358.896 220.465L351.554 223.605L346.274 206.584C333.059 163.962 297.127 133.75 254.058 127.314C247.918 147.445 245.16 169.052 246.578 191.499Z" fill="url(#paint5_linear_245_152)"/>
<path opacity="0.3" d="M246.578 191.499C248.989 229.66 263.655 264.687 286.532 292.829L358.896 220.465L351.554 223.605L346.274 206.584C333.059 163.962 297.127 133.75 254.058 127.314C247.918 147.445 245.16 169.052 246.578 191.499Z" fill="url(#paint6_linear_245_152)"/>
<path d="M414.467 194.946C457.86 201.037 492.433 236.283 497.803 279.77C500.628 302.648 495.577 324.213 485.01 342.138H503.396C567.251 311.65 610.334 244.657 605.5 168.136C602.256 116.796 576.911 71.0881 539.049 40.3096L384.024 195.335C393.767 193.714 403.978 193.473 414.467 194.946Z" fill="#F0DB70"/>
<path d="M638 385.997C638 361.875 618.264 342.139 594.143 342.139H503.397C489.109 348.962 473.789 353.946 457.721 356.803L456.895 358.205H594.145C609.467 358.205 621.934 370.671 621.934 385.998C621.934 401.32 609.467 413.787 594.145 413.787H165.571L149.504 429.854H594.143C618.264 429.854 638 410.119 638 385.997Z" fill="#DFDBCB"/>
<path d="M497.803 279.77C492.433 236.281 457.86 201.037 414.467 194.946C403.977 193.473 393.767 193.715 384.024 195.335L358.895 220.463L367.934 216.598C378.157 212.228 389.031 210.011 400.242 210.011C404.212 210.011 408.244 210.294 412.229 210.855C448.13 215.895 477.41 245.704 481.85 281.739C484.132 300.187 480.438 318.252 471.164 333.983L457.719 356.804C473.786 353.946 489.107 348.961 503.395 342.14H485.008C495.577 324.213 500.628 302.648 497.803 279.77Z" fill="#F4F4C5"/>
<path d="M594.144 358.205H456.896L457.722 356.804L471.167 333.983C480.44 318.252 484.135 300.189 481.852 281.739C477.411 245.704 448.132 215.895 412.232 210.855C408.247 210.294 404.213 210.011 400.244 210.011C389.033 210.011 378.16 212.228 367.937 216.598L358.898 220.463L286.533 292.828L165.574 413.786H594.147C609.469 413.786 621.936 401.319 621.936 385.997C621.933 370.671 609.467 358.205 594.144 358.205Z" fill="url(#paint7_linear_245_152)"/>
<defs>
<linearGradient id="paint0_linear_245_152" x1="239.234" y1="211.184" x2="722.094" y2="410.182" gradientUnits="userSpaceOnUse">
<stop stop-color="#EEE9D2"/>
<stop offset="1" stop-color="#FEF7E8"/>
</linearGradient>
<linearGradient id="paint1_linear_245_152" x1="129.746" y1="511.902" x2="129.746" y2="267.237" gradientUnits="userSpaceOnUse">
<stop stop-color="#C2BD9C"/>
<stop offset="1" stop-color="#FEF7E8"/>
</linearGradient>
<linearGradient id="paint2_linear_245_152" x1="319.041" y1="511.905" x2="319.041" y2="267.22" gradientUnits="userSpaceOnUse">
<stop stop-color="#C2BD9C"/>
<stop offset="1" stop-color="#FEF7E8"/>
</linearGradient>
<linearGradient id="paint3_linear_245_152" x1="151.289" y1="511.905" x2="151.289" y2="267.221" gradientUnits="userSpaceOnUse">
<stop stop-color="#C2BD9C"/>
<stop offset="1" stop-color="#FEF7E8"/>
</linearGradient>
<linearGradient id="paint4_linear_245_152" x1="258.157" y1="34.2779" x2="195.895" y2="209.013" gradientUnits="userSpaceOnUse">
<stop stop-color="#C2BD9C"/>
<stop offset="1" stop-color="#FEF7E8"/>
</linearGradient>
<linearGradient id="paint5_linear_245_152" x1="302.553" y1="511.905" x2="302.553" y2="267.221" gradientUnits="userSpaceOnUse">
<stop stop-color="#C2BD9C"/>
<stop offset="1" stop-color="#FEF7E8"/>
</linearGradient>
<linearGradient id="paint6_linear_245_152" x1="16.0466" y1="210.07" x2="621.933" y2="210.07" gradientUnits="userSpaceOnUse">
<stop stop-color="#C2BD9C"/>
<stop offset="1" stop-color="#FEF7E8"/>
</linearGradient>
<linearGradient id="paint7_linear_245_152" x1="323.645" y1="325.309" x2="655.039" y2="461.884" gradientUnits="userSpaceOnUse">
<stop stop-color="#EEE9D2"/>
<stop offset="1" stop-color="#FEF7E8"/>
</linearGradient>
</defs>
</svg>
