<svg width="638" height="425" viewBox="0 0 638 425" fill="none" xmlns="http://www.w3.org/2000/svg">
<path d="M124.574 268.211L112.859 265.006L124.572 268.188L124.574 268.211ZM82.1051 260.967C84.5961 260.566 87.087 260.405 89.5767 260.405C92.3306 260.405 95.1118 260.737 97.8881 261.229C95.1231 260.745 92.338 260.413 89.5431 260.413C87.0795 260.413 84.5774 260.604 82.1138 260.977C73.9744 262.211 66.4691 265.548 60.1589 270.389C66.4666 265.542 73.9694 262.203 82.1051 260.967ZM46.4332 331.328L49.4475 337.128L46.4357 331.343C46.1977 330.88 46.0469 330.386 45.8251 329.917C46.0469 330.381 46.1964 330.872 46.4332 331.328ZM32.1442 355.822C26.2502 358.576 21.6197 363.324 18.8559 369.051C21.6098 363.31 26.234 358.56 32.1442 355.822ZM38.2563 408.223C40.0619 408.593 41.9311 408.787 43.8438 408.787H165.571L165.568 408.79H43.865C41.9435 408.79 40.0681 408.594 38.2563 408.223Z" fill="url(#paint0_linear_244_133)"/>
<path d="M419.5 154L384.016 190.351C376.223 191.635 368.672 193.805 361.603 196.858C347.302 150.583 308.017 115.476 259.493 106.96C287.691 37.8688 361.603 -4.49999 384.016 0.499991C377.5 20 365 45 377.5 81.5C395.644 134.481 408.975 145.484 419.5 154Z" fill="#FBE2A7"/>
<path d="M259.492 106.96C257.483 111.941 255.635 117.083 254.029 122.305C248.405 121.501 242.702 121.02 236.836 121.02C173.611 121.02 122.274 172.356 122.274 235.582C122.274 238.875 122.354 242.089 122.677 245.303L124.604 268.2L102.431 262.175C98.1735 260.97 93.8346 260.407 89.5779 260.407C87.087 260.407 84.5973 260.567 82.1064 260.969C60.4156 264.263 43.2233 282.5 41.2146 304.432C40.3311 313.752 42.179 323.071 46.4369 331.346L55.5945 348.939L36.4744 354.241C24.4234 357.536 16.0684 368.541 16.0684 380.994C16.0684 396.338 28.5206 408.79 43.865 408.79H165.577L149.51 424.857H43.865C41.2133 424.857 38.6426 424.616 36.1529 424.135C18.1568 420.921 3.85666 406.702 0.72398 388.706C0.241742 386.215 0 383.644 0 380.992C0 360.908 13.6572 343.876 32.1355 338.735C26.6726 328.21 24.021 315.919 25.2272 302.905C27.8776 273.742 50.6948 249.48 79.6964 245.061C89.0969 243.695 98.2545 244.338 106.61 246.668C106.368 242.973 106.127 239.277 106.127 235.582C106.127 163.438 164.694 104.951 236.838 104.951C244.55 104.951 252.182 105.674 259.492 106.96Z" fill="url(#paint1_linear_244_133)"/>
<path d="M346.273 201.583L351.553 218.603L358.895 215.463L384.024 190.335C376.213 191.633 368.696 193.8 361.621 196.824C347.293 150.622 308 115.436 259.522 106.934C257.474 111.952 255.652 117.08 254.056 122.313C297.126 128.749 333.058 158.959 346.273 201.583Z" fill="#F0DB70"/>
<path d="M346.273 201.583L351.553 218.603L358.895 215.463L384.024 190.335C376.213 191.633 368.696 193.8 361.621 196.824C347.293 150.622 308 115.436 259.522 106.934C257.474 111.952 255.652 117.08 254.056 122.313C297.126 128.749 333.058 158.959 346.273 201.583Z" fill="url(#paint2_linear_244_133)"/>
<path d="M246.578 186.499C245.16 164.054 247.918 142.445 254.057 122.313C248.416 121.47 242.664 120.991 236.813 120.991C173.633 120.991 122.237 172.395 122.237 235.574C122.237 238.854 122.386 242.098 122.653 245.306L124.576 268.211L102.404 262.146C98.1985 260.997 93.8684 260.413 89.5457 260.413C87.0821 260.413 84.58 260.605 82.1164 260.977C60.3995 264.268 43.1872 282.528 41.1947 304.395C40.3312 313.767 42.1517 323.079 46.4358 331.329L55.5759 348.919L36.4795 354.222C24.4522 357.561 16.0498 368.572 16.0498 380.998C16.0498 396.32 28.5157 408.788 43.8464 408.788H165.574L286.533 287.829C263.654 259.687 248.99 224.66 246.578 186.499Z" fill="url(#paint3_linear_244_133)"/>
<path opacity="0.3" d="M246.578 186.499C245.16 164.054 247.918 142.445 254.057 122.313C248.416 121.47 242.664 120.991 236.813 120.991C173.633 120.991 122.237 172.395 122.237 235.574C122.237 238.854 122.386 242.098 122.653 245.306L124.576 268.211L102.404 262.146C98.1985 260.997 93.8684 260.413 89.5457 260.413C87.0821 260.413 84.58 260.605 82.1164 260.977C60.3995 264.268 43.1872 282.528 41.1947 304.395C40.3312 313.767 42.1517 323.079 46.4358 331.329L55.5759 348.919L36.4795 354.222C24.4522 357.561 16.0498 368.572 16.0498 380.998C16.0498 396.32 28.5157 408.788 43.8464 408.788H165.574L286.533 287.829C263.654 259.687 248.99 224.66 246.578 186.499Z" fill="url(#paint4_linear_244_133)"/>
<path d="M246.578 186.499C248.989 224.66 263.655 259.687 286.532 287.829L358.896 215.465L351.554 218.605L346.274 201.584C333.059 158.962 297.127 128.75 254.058 122.314C247.918 142.445 245.16 164.052 246.578 186.499Z" fill="#F0DB70"/>
<path d="M246.578 186.499C248.989 224.66 263.655 259.687 286.532 287.829L358.896 215.465L351.554 218.605L346.274 201.584C333.059 158.962 297.127 128.75 254.058 122.314C247.918 142.445 245.16 164.052 246.578 186.499Z" fill="url(#paint5_linear_244_133)"/>
<path opacity="0.3" d="M246.578 186.499C248.989 224.66 263.655 259.687 286.532 287.829L358.896 215.465L351.554 218.605L346.274 201.584C333.059 158.962 297.127 128.75 254.058 122.314C247.918 142.445 245.16 164.052 246.578 186.499Z" fill="url(#paint6_linear_244_133)"/>
<path d="M385.466 220.446C428.859 226.537 463.432 261.783 468.803 305.27C471.627 328.149 466.576 349.713 456.009 367.638H474.395C538.25 337.15 608.835 275.52 604 199C483.51 215.364 457.361 184.779 419.5 154L353.5 220.446C363.243 218.825 374.977 218.973 385.466 220.446Z" fill="#F0DB70"/>
<path d="M638 380.997C638 356.875 618.264 337.139 594.143 337.139H503.397C489.109 343.962 473.789 348.946 457.721 351.803L456.895 353.205H594.145C609.467 353.205 621.934 365.671 621.934 380.998C621.934 396.32 609.467 408.787 594.145 408.787H165.571L149.504 424.854H594.143C618.264 424.854 638 405.119 638 380.997Z" fill="#DFDBCB"/>
<path d="M497.803 274.77C492.433 231.281 457.86 196.037 414.467 189.946C403.977 188.473 393.767 188.715 384.024 190.335L358.895 215.463L367.934 211.598C378.157 207.228 389.031 205.011 400.242 205.011C404.212 205.011 408.244 205.294 412.229 205.855C448.13 210.895 477.41 240.704 481.85 276.739C484.132 295.187 480.438 313.252 471.164 328.983L457.719 351.804C473.786 348.946 489.107 343.961 503.395 337.14H485.008C495.577 319.213 500.628 297.648 497.803 274.77Z" fill="#F4F4C5"/>
<path d="M594.144 353.205H456.896L457.722 351.804L471.167 328.983C480.44 313.252 484.135 295.189 481.852 276.739C477.411 240.704 448.132 210.895 412.232 205.855C408.247 205.294 404.213 205.011 400.244 205.011C389.033 205.011 378.16 207.228 367.937 211.598L358.898 215.463L286.533 287.828L165.574 408.786H594.147C609.469 408.786 621.936 396.319 621.936 380.997C621.933 365.671 609.467 353.205 594.144 353.205Z" fill="url(#paint7_linear_244_133)"/>
<defs>
<linearGradient id="paint0_linear_244_133" x1="239.234" y1="206.184" x2="722.094" y2="405.182" gradientUnits="userSpaceOnUse">
<stop stop-color="#EEE9D2"/>
<stop offset="1" stop-color="#FEF7E8"/>
</linearGradient>
<linearGradient id="paint1_linear_244_133" x1="129.746" y1="506.902" x2="129.746" y2="262.237" gradientUnits="userSpaceOnUse">
<stop stop-color="#C2BD9C"/>
<stop offset="1" stop-color="#FEF7E8"/>
</linearGradient>
<linearGradient id="paint2_linear_244_133" x1="319.041" y1="506.905" x2="319.041" y2="262.22" gradientUnits="userSpaceOnUse">
<stop stop-color="#C2BD9C"/>
<stop offset="1" stop-color="#FEF7E8"/>
</linearGradient>
<linearGradient id="paint3_linear_244_133" x1="151.289" y1="506.905" x2="151.289" y2="262.221" gradientUnits="userSpaceOnUse">
<stop stop-color="#C2BD9C"/>
<stop offset="1" stop-color="#FEF7E8"/>
</linearGradient>
<linearGradient id="paint4_linear_244_133" x1="258.157" y1="29.2779" x2="195.895" y2="204.013" gradientUnits="userSpaceOnUse">
<stop stop-color="#C2BD9C"/>
<stop offset="1" stop-color="#FEF7E8"/>
</linearGradient>
<linearGradient id="paint5_linear_244_133" x1="302.553" y1="506.905" x2="302.553" y2="262.221" gradientUnits="userSpaceOnUse">
<stop stop-color="#C2BD9C"/>
<stop offset="1" stop-color="#FEF7E8"/>
</linearGradient>
<linearGradient id="paint6_linear_244_133" x1="16.0466" y1="205.07" x2="621.933" y2="205.07" gradientUnits="userSpaceOnUse">
<stop stop-color="#C2BD9C"/>
<stop offset="1" stop-color="#FEF7E8"/>
</linearGradient>
<linearGradient id="paint7_linear_244_133" x1="323.645" y1="320.309" x2="655.039" y2="456.884" gradientUnits="userSpaceOnUse">
<stop stop-color="#EEE9D2"/>
<stop offset="1" stop-color="#FEF7E8"/>
</linearGradient>
</defs>
</svg>
