<svg width="638" height="493" viewBox="0 0 638 493" fill="none" xmlns="http://www.w3.org/2000/svg">
<path d="M259.492 2.0087C257.483 6.98934 255.635 12.132 254.029 17.3531C248.405 16.5494 242.702 16.0684 236.836 16.0684C173.611 16.0684 122.274 67.4049 122.274 130.63C122.274 133.924 122.354 137.138 122.677 140.351L124.604 163.248L102.431 157.223C98.1735 156.018 93.8346 155.455 89.5779 155.455C87.087 155.455 84.5973 155.616 82.1064 156.017C60.4156 159.312 43.2233 177.548 41.2146 199.481C40.3311 208.8 42.179 218.12 46.4369 226.394L55.5945 243.988L36.4744 249.29C24.4234 252.584 16.0684 263.59 16.0684 276.042C16.0684 291.387 28.5206 303.839 43.865 303.839H165.577L149.51 319.906H43.865C41.2133 319.906 38.6426 319.664 36.1529 319.183C18.1568 315.969 3.85666 301.75 0.72398 283.754C0.241742 281.263 0 278.693 0 276.041C0 255.956 13.6572 238.925 32.1355 233.783C26.6726 223.259 24.021 210.967 25.2272 197.953C27.8776 168.791 50.6948 144.528 79.6964 140.11C89.0969 138.744 98.2545 139.387 106.61 141.717C106.368 138.021 106.127 134.325 106.127 130.63C106.127 58.4866 164.694 0 236.838 0C244.55 0 252.182 0.722734 259.492 2.0087Z" fill="url(#paint0_linear_245_413)"/>
<path d="M346.273 96.6316L351.553 113.652L358.895 110.512L384.024 85.3831C376.213 86.6815 368.696 88.8485 361.621 91.8728C347.293 45.6701 308 10.4842 259.522 1.98206C257.474 7.00008 255.652 12.129 254.056 17.3613C297.126 23.7974 333.058 54.0077 346.273 96.6316Z" fill="#F0DB70"/>
<path d="M346.273 96.6316L351.553 113.652L358.895 110.512L384.024 85.3831C376.213 86.6815 368.696 88.8485 361.621 91.8728C347.293 45.6701 308 10.4842 259.522 1.98206C257.474 7.00008 255.652 12.129 254.056 17.3613C297.126 23.7974 333.058 54.0077 346.273 96.6316Z" fill="url(#paint1_linear_245_413)"/>
<path d="M246.578 81.5479C245.16 59.1021 247.918 37.4935 254.057 17.3617C248.416 16.518 242.664 16.0396 236.813 16.0396C173.633 16.0396 122.237 67.4434 122.237 130.623C122.237 133.903 122.386 137.146 122.653 140.355L124.576 163.259L102.404 157.195C98.1985 156.046 93.8684 155.461 89.5457 155.461C87.0821 155.461 84.58 155.653 82.1164 156.026C60.3995 159.317 43.1872 177.577 41.1947 199.443C40.3312 208.815 42.1517 218.127 46.4358 226.378L55.5759 243.968L36.4795 249.271C24.4522 252.609 16.0498 263.621 16.0498 276.047C16.0498 291.369 28.5157 303.836 43.8464 303.836H165.574L286.533 182.878C263.654 154.736 248.99 119.708 246.578 81.5479Z" fill="url(#paint2_linear_245_413)"/>
<path opacity="0.3" d="M246.578 81.5479C245.16 59.1021 247.918 37.4935 254.057 17.3617C248.416 16.518 242.664 16.0396 236.813 16.0396C173.633 16.0396 122.237 67.4434 122.237 130.623C122.237 133.903 122.386 137.146 122.653 140.355L124.576 163.259L102.404 157.195C98.1985 156.046 93.8684 155.461 89.5457 155.461C87.0821 155.461 84.58 155.653 82.1164 156.026C60.3995 159.317 43.1872 177.577 41.1947 199.443C40.3312 208.815 42.1517 218.127 46.4358 226.378L55.5759 243.968L36.4795 249.271C24.4522 252.609 16.0498 263.621 16.0498 276.047C16.0498 291.369 28.5157 303.836 43.8464 303.836H165.574L286.533 182.878C263.654 154.736 248.99 119.708 246.578 81.5479Z" fill="url(#paint3_linear_245_413)"/>
<path d="M246.578 81.5478C248.989 119.708 263.655 154.736 286.532 182.878L358.896 110.513L351.554 113.653L346.274 96.633C333.059 54.0103 297.127 23.7988 254.058 17.3627C247.918 37.4934 245.16 59.1006 246.578 81.5478Z" fill="#F0DB70"/>
<path d="M246.578 81.5478C248.989 119.708 263.655 154.736 286.532 182.878L358.896 110.513L351.554 113.653L346.274 96.633C333.059 54.0103 297.127 23.7988 254.058 17.3627C247.918 37.4934 245.16 59.1006 246.578 81.5478Z" fill="url(#paint4_linear_245_413)"/>
<path opacity="0.3" d="M246.578 81.5478C248.989 119.708 263.655 154.736 286.532 182.878L358.896 110.513L351.554 113.653L346.274 96.633C333.059 54.0104 297.127 23.7988 254.058 17.3627C247.918 37.4934 245.16 59.1006 246.578 81.5478Z" fill="url(#paint5_linear_245_413)"/>
<path d="M638 276.045C638 251.923 618.264 232.188 594.143 232.188H503.397C489.109 239.01 473.789 243.994 457.721 246.852L456.895 248.254H594.145C609.467 248.254 621.934 260.72 621.934 276.046C621.934 291.368 609.467 303.836 594.145 303.836H165.571L149.504 319.903H594.143C618.264 319.903 638 300.167 638 276.045Z" fill="#DFDBCB"/>
<path d="M497.803 169.819C492.433 126.33 457.86 91.0854 414.467 84.9945C403.977 83.5216 393.767 83.7634 384.024 85.3833L358.895 110.512L367.934 106.647C378.157 102.277 389.031 100.06 400.242 100.06C404.212 100.06 408.244 100.343 412.229 100.903C448.13 105.944 477.41 135.753 481.85 171.787C484.132 190.236 480.438 208.3 471.164 224.031L457.719 246.852C473.786 243.995 489.107 239.009 503.395 232.188H485.008C495.577 214.262 500.628 192.697 497.803 169.819Z" fill="#F4F4C5"/>
<path d="M594.144 248.254H456.896L457.722 246.852L471.167 224.031C480.44 208.3 484.135 190.237 481.852 171.787C477.411 135.753 448.132 105.944 412.232 100.903C408.247 100.343 404.213 100.06 400.244 100.06C389.033 100.06 378.16 102.277 367.937 106.647L358.898 110.512L286.533 182.876L165.574 303.835H594.147C609.469 303.835 621.936 291.368 621.936 276.046C621.933 260.72 609.467 248.254 594.144 248.254Z" fill="url(#paint6_linear_245_413)"/>
<path d="M131.578 352.771C130.817 352.01 129.582 352.01 128.821 352.771L126.95 354.642V348.95C126.95 347.873 126.077 347 125 347C123.923 347 123.05 347.873 123.05 348.95V354.642L121.179 352.771C120.418 352.01 119.183 352.01 118.422 352.771C117.66 353.532 117.66 354.767 118.422 355.528L123.05 360.157V366.592C123.05 367.669 123.923 368.843 125 368.843C126.077 368.843 126.95 367.669 126.95 366.592V360.157L131.579 355.528C132.34 354.767 132.34 353.532 131.578 352.771Z" fill="#88C8C9"/>
<path d="M131.579 395.603L126.95 390.974V384.539C126.95 383.462 126.077 382.353 125 382.353L119.15 378.975V372.221L125 368.844V364.642C124.663 364.642 124.327 364.729 124.025 364.904L117.229 368.828L112.631 366.173L110.936 359.85C110.658 358.81 109.588 358.193 108.548 358.471C107.508 358.75 106.891 359.819 107.169 360.859L107.854 363.415L102.925 360.569C101.992 360.03 100.8 360.35 100.262 361.283C99.7231 362.215 100.043 363.408 100.975 363.946L105.905 366.792L103.349 367.477C102.309 367.756 101.691 368.825 101.97 369.865C102.203 370.737 102.991 371.311 103.852 371.311C104.019 371.311 104.189 371.29 104.358 371.244L110.681 369.55L115.251 372.189V378.943L110.681 381.582L104.358 379.887C103.319 379.61 102.249 380.226 101.97 381.266C101.691 382.307 102.308 383.376 103.349 383.654L105.905 384.339L100.975 387.185C100.043 387.724 99.7233 388.917 100.262 389.849C100.623 390.475 101.278 390.824 101.952 390.824C102.283 390.824 102.618 390.74 102.925 390.562L107.855 387.716L107.17 390.272C106.891 391.312 107.508 392.381 108.549 392.66C108.718 392.705 108.887 392.727 109.054 392.727C109.915 392.727 110.703 392.152 110.937 391.281L112.631 384.958L117.173 382.336L123.051 385.73V390.974L118.422 395.603C117.661 396.364 117.661 397.599 118.422 398.36C119.183 399.121 120.418 399.121 121.179 398.36L123.051 396.489V402.181C123.051 403.258 123.923 404.131 125 404.131C126.078 404.131 126.95 403.258 126.95 402.181V396.489L128.821 398.36C129.202 398.741 129.701 398.931 130.2 398.931C130.699 398.931 131.198 398.741 131.579 398.36C132.34 397.599 132.34 396.365 131.579 395.603Z" fill="#A0D7DC"/>
<path d="M149.024 387.185L144.095 384.339L146.651 383.654C147.691 383.376 148.308 382.306 148.03 381.266C147.751 380.226 146.682 379.609 145.642 379.887L139.319 381.582L134.749 378.943V372.188L139.319 369.55L145.641 371.244C145.811 371.289 145.981 371.311 146.147 371.311C147.008 371.311 147.796 370.736 148.029 369.865C148.308 368.825 147.691 367.756 146.651 367.477L144.095 366.792L149.024 363.946C149.957 363.408 150.276 362.215 149.738 361.283C149.199 360.35 148.006 360.03 147.074 360.569L142.145 363.415L142.83 360.859C143.109 359.819 142.491 358.75 141.451 358.471C140.411 358.192 139.342 358.809 139.063 359.85L137.369 366.173L132.77 368.828L125.975 364.904C125.673 364.73 125.336 364.643 125 364.643V368.844L130.849 372.222V378.976L125 382.353V386.555C125.336 386.555 125.673 386.468 125.974 386.293L132.827 382.337L137.369 384.959L139.063 391.282C139.296 392.153 140.084 392.728 140.945 392.728C141.112 392.728 141.282 392.706 141.451 392.661C142.491 392.382 143.108 391.313 142.83 390.273L142.145 387.717L147.074 390.563C147.382 390.74 147.717 390.825 148.047 390.825C148.721 390.825 149.377 390.475 149.738 389.849C150.277 388.916 149.957 387.724 149.024 387.185Z" fill="#88C8C9"/>
<path d="M290.578 352.771C289.817 352.01 288.582 352.01 287.821 352.771L285.95 354.642V348.95C285.95 347.873 285.077 347 284 347C282.923 347 282.05 347.873 282.05 348.95V354.642L280.179 352.771C279.418 352.01 278.183 352.01 277.422 352.771C276.66 353.532 276.66 354.767 277.422 355.528L282.05 360.157V366.592C282.05 367.669 282.923 368.843 284 368.843C285.077 368.843 285.95 367.669 285.95 366.592V360.157L290.579 355.528C291.34 354.767 291.34 353.532 290.578 352.771Z" fill="#88C8C9"/>
<path d="M290.579 395.603L285.95 390.974V384.539C285.95 383.462 285.077 382.353 284 382.353L278.15 378.975V372.221L284 368.844V364.642C283.663 364.642 283.327 364.729 283.025 364.904L276.229 368.828L271.631 366.173L269.936 359.85C269.658 358.81 268.588 358.193 267.548 358.471C266.508 358.75 265.891 359.819 266.169 360.859L266.854 363.415L261.925 360.569C260.992 360.03 259.8 360.35 259.262 361.283C258.723 362.215 259.043 363.408 259.975 363.946L264.905 366.792L262.349 367.477C261.309 367.756 260.691 368.825 260.97 369.865C261.203 370.737 261.991 371.311 262.852 371.311C263.019 371.311 263.189 371.29 263.358 371.244L269.681 369.55L274.251 372.189V378.943L269.681 381.582L263.358 379.887C262.319 379.61 261.249 380.226 260.97 381.266C260.691 382.307 261.308 383.376 262.349 383.654L264.905 384.339L259.975 387.185C259.043 387.724 258.723 388.917 259.262 389.849C259.623 390.475 260.278 390.824 260.952 390.824C261.283 390.824 261.618 390.74 261.925 390.562L266.855 387.716L266.17 390.272C265.891 391.312 266.508 392.381 267.549 392.66C267.718 392.705 267.887 392.727 268.054 392.727C268.915 392.727 269.703 392.152 269.937 391.281L271.631 384.958L276.173 382.336L282.051 385.73V390.974L277.422 395.603C276.661 396.364 276.661 397.599 277.422 398.36C278.183 399.121 279.418 399.121 280.179 398.36L282.051 396.489V402.181C282.051 403.258 282.923 404.131 284 404.131C285.078 404.131 285.95 403.258 285.95 402.181V396.489L287.821 398.36C288.202 398.741 288.701 398.931 289.2 398.931C289.699 398.931 290.198 398.741 290.579 398.36C291.34 397.599 291.34 396.365 290.579 395.603Z" fill="#A0D7DC"/>
<path d="M308.024 387.185L303.095 384.339L305.651 383.654C306.691 383.376 307.308 382.306 307.03 381.266C306.751 380.226 305.682 379.609 304.642 379.887L298.319 381.582L293.749 378.943V372.188L298.319 369.55L304.641 371.244C304.811 371.289 304.981 371.311 305.147 371.311C306.008 371.311 306.796 370.736 307.029 369.865C307.308 368.825 306.691 367.756 305.651 367.477L303.095 366.792L308.024 363.946C308.957 363.408 309.276 362.215 308.738 361.283C308.199 360.35 307.006 360.03 306.074 360.569L301.145 363.415L301.83 360.859C302.109 359.819 301.491 358.75 300.451 358.471C299.411 358.192 298.342 358.809 298.063 359.85L296.369 366.173L291.77 368.828L284.975 364.904C284.673 364.73 284.336 364.643 284 364.643V368.844L289.849 372.222V378.976L284 382.353V386.555C284.336 386.555 284.673 386.468 284.974 386.293L291.827 382.337L296.369 384.959L298.063 391.282C298.296 392.153 299.084 392.728 299.945 392.728C300.112 392.728 300.282 392.706 300.451 392.661C301.491 392.382 302.108 391.313 301.83 390.273L301.145 387.717L306.074 390.563C306.382 390.74 306.717 390.825 307.047 390.825C307.721 390.825 308.377 390.475 308.738 389.849C309.277 388.916 308.957 387.724 308.024 387.185Z" fill="#88C8C9"/>
<path d="M462.578 352.771C461.817 352.01 460.582 352.01 459.821 352.771L457.95 354.642V348.95C457.95 347.873 457.077 347 456 347C454.923 347 454.05 347.873 454.05 348.95V354.642L452.179 352.771C451.418 352.01 450.183 352.01 449.422 352.771C448.66 353.532 448.66 354.767 449.422 355.528L454.05 360.157V366.592C454.05 367.669 454.923 368.843 456 368.843C457.077 368.843 457.95 367.669 457.95 366.592V360.157L462.579 355.528C463.34 354.767 463.34 353.532 462.578 352.771Z" fill="#88C8C9"/>
<path d="M462.579 395.603L457.95 390.974V384.539C457.95 383.462 457.077 382.353 456 382.353L450.15 378.975V372.221L456 368.844V364.642C455.663 364.642 455.327 364.729 455.025 364.904L448.229 368.828L443.631 366.173L441.936 359.85C441.658 358.81 440.588 358.193 439.548 358.471C438.508 358.75 437.891 359.819 438.169 360.859L438.854 363.415L433.925 360.569C432.992 360.03 431.8 360.35 431.262 361.283C430.723 362.215 431.043 363.408 431.975 363.946L436.905 366.792L434.349 367.477C433.309 367.756 432.691 368.825 432.97 369.865C433.203 370.737 433.991 371.311 434.852 371.311C435.019 371.311 435.189 371.29 435.358 371.244L441.681 369.55L446.251 372.189V378.943L441.681 381.582L435.358 379.887C434.319 379.61 433.249 380.226 432.97 381.266C432.691 382.307 433.308 383.376 434.349 383.654L436.905 384.339L431.975 387.185C431.043 387.724 430.723 388.917 431.262 389.849C431.623 390.475 432.278 390.824 432.952 390.824C433.283 390.824 433.618 390.74 433.925 390.562L438.855 387.716L438.17 390.272C437.891 391.312 438.508 392.381 439.549 392.66C439.718 392.705 439.887 392.727 440.054 392.727C440.915 392.727 441.703 392.152 441.937 391.281L443.631 384.958L448.173 382.336L454.051 385.73V390.974L449.422 395.603C448.661 396.364 448.661 397.599 449.422 398.36C450.183 399.121 451.418 399.121 452.179 398.36L454.051 396.489V402.181C454.051 403.258 454.923 404.131 456 404.131C457.078 404.131 457.95 403.258 457.95 402.181V396.489L459.821 398.36C460.202 398.741 460.701 398.931 461.2 398.931C461.699 398.931 462.198 398.741 462.579 398.36C463.34 397.599 463.34 396.365 462.579 395.603Z" fill="#A0D7DC"/>
<path d="M480.024 387.185L475.095 384.339L477.651 383.654C478.691 383.376 479.308 382.306 479.03 381.266C478.751 380.226 477.682 379.609 476.642 379.887L470.319 381.582L465.749 378.943V372.188L470.319 369.55L476.641 371.244C476.811 371.289 476.981 371.311 477.147 371.311C478.008 371.311 478.796 370.736 479.029 369.865C479.308 368.825 478.691 367.756 477.651 367.477L475.095 366.792L480.024 363.946C480.957 363.408 481.276 362.215 480.738 361.283C480.199 360.35 479.006 360.03 478.074 360.569L473.145 363.415L473.83 360.859C474.109 359.819 473.491 358.75 472.451 358.471C471.411 358.192 470.342 358.809 470.063 359.85L468.369 366.173L463.77 368.828L456.975 364.904C456.673 364.73 456.336 364.643 456 364.643V368.844L461.849 372.222V378.976L456 382.353V386.555C456.336 386.555 456.673 386.468 456.974 386.293L463.827 382.337L468.369 384.959L470.063 391.282C470.296 392.153 471.084 392.728 471.945 392.728C472.112 392.728 472.282 392.706 472.451 392.661C473.491 392.382 474.108 391.313 473.83 390.273L473.145 387.717L478.074 390.563C478.382 390.74 478.717 390.825 479.047 390.825C479.721 390.825 480.377 390.475 480.738 389.849C481.277 388.916 480.957 387.724 480.024 387.185Z" fill="#88C8C9"/>
<path d="M208.578 440.771C207.817 440.01 206.582 440.01 205.821 440.771L203.95 442.642V436.95C203.95 435.873 203.077 435 202 435C200.923 435 200.05 435.873 200.05 436.95V442.642L198.179 440.771C197.418 440.01 196.183 440.01 195.422 440.771C194.66 441.532 194.66 442.767 195.422 443.528L200.05 448.157V454.592C200.05 455.669 200.923 456.843 202 456.843C203.077 456.843 203.95 455.669 203.95 454.592V448.157L208.579 443.528C209.34 442.767 209.34 441.532 208.578 440.771Z" fill="#88C8C9"/>
<path d="M208.579 483.603L203.95 478.974V472.539C203.95 471.462 203.077 470.353 202 470.353L196.15 466.975V460.221L202 456.844V452.642C201.663 452.642 201.327 452.729 201.025 452.904L194.229 456.828L189.631 454.173L187.936 447.85C187.658 446.81 186.588 446.193 185.548 446.471C184.508 446.75 183.891 447.819 184.169 448.859L184.854 451.415L179.925 448.569C178.992 448.03 177.8 448.35 177.262 449.283C176.723 450.215 177.043 451.408 177.975 451.946L182.905 454.792L180.349 455.477C179.309 455.756 178.691 456.825 178.97 457.865C179.203 458.737 179.991 459.311 180.852 459.311C181.019 459.311 181.189 459.29 181.358 459.244L187.681 457.55L192.251 460.189V466.943L187.681 469.582L181.358 467.887C180.319 467.61 179.249 468.226 178.97 469.266C178.691 470.307 179.308 471.376 180.349 471.654L182.905 472.339L177.975 475.185C177.043 475.724 176.723 476.917 177.262 477.849C177.623 478.475 178.278 478.824 178.952 478.824C179.283 478.824 179.618 478.74 179.925 478.562L184.855 475.716L184.17 478.272C183.891 479.312 184.508 480.381 185.549 480.66C185.718 480.705 185.887 480.727 186.054 480.727C186.915 480.727 187.703 480.152 187.937 479.281L189.631 472.958L194.173 470.336L200.051 473.73V478.974L195.422 483.603C194.661 484.364 194.661 485.599 195.422 486.36C196.183 487.121 197.418 487.121 198.179 486.36L200.051 484.489V490.181C200.051 491.258 200.923 492.131 202 492.131C203.078 492.131 203.95 491.258 203.95 490.181V484.489L205.821 486.36C206.202 486.741 206.701 486.931 207.2 486.931C207.699 486.931 208.198 486.741 208.579 486.36C209.34 485.599 209.34 484.365 208.579 483.603Z" fill="#A0D7DC"/>
<path d="M226.024 475.185L221.095 472.339L223.651 471.654C224.691 471.376 225.308 470.306 225.03 469.266C224.751 468.226 223.682 467.609 222.642 467.887L216.319 469.582L211.749 466.943V460.188L216.319 457.55L222.641 459.244C222.811 459.289 222.981 459.311 223.147 459.311C224.008 459.311 224.796 458.736 225.029 457.865C225.308 456.825 224.691 455.756 223.651 455.477L221.095 454.792L226.024 451.946C226.957 451.408 227.276 450.215 226.738 449.283C226.199 448.35 225.006 448.03 224.074 448.569L219.145 451.415L219.83 448.859C220.109 447.819 219.491 446.75 218.451 446.471C217.411 446.192 216.342 446.809 216.063 447.85L214.369 454.173L209.77 456.828L202.975 452.904C202.673 452.73 202.336 452.643 202 452.643V456.844L207.849 460.222V466.976L202 470.353V474.555C202.336 474.555 202.673 474.468 202.974 474.293L209.827 470.337L214.369 472.959L216.063 479.282C216.296 480.153 217.084 480.728 217.945 480.728C218.112 480.728 218.282 480.706 218.451 480.661C219.491 480.382 220.108 479.313 219.83 478.273L219.145 475.717L224.074 478.563C224.382 478.74 224.717 478.825 225.047 478.825C225.721 478.825 226.377 478.475 226.738 477.849C227.277 476.916 226.957 475.724 226.024 475.185Z" fill="#88C8C9"/>
<path d="M390.578 440.771C389.817 440.01 388.582 440.01 387.821 440.771L385.95 442.642V436.95C385.95 435.873 385.077 435 384 435C382.923 435 382.05 435.873 382.05 436.95V442.642L380.179 440.771C379.418 440.01 378.183 440.01 377.422 440.771C376.66 441.532 376.66 442.767 377.422 443.528L382.05 448.157V454.592C382.05 455.669 382.923 456.843 384 456.843C385.077 456.843 385.95 455.669 385.95 454.592V448.157L390.579 443.528C391.34 442.767 391.34 441.532 390.578 440.771Z" fill="#88C8C9"/>
<path d="M390.579 483.603L385.95 478.974V472.539C385.95 471.462 385.077 470.353 384 470.353L378.15 466.975V460.221L384 456.844V452.642C383.663 452.642 383.327 452.729 383.025 452.904L376.229 456.828L371.631 454.173L369.936 447.85C369.658 446.81 368.588 446.193 367.548 446.471C366.508 446.75 365.891 447.819 366.169 448.859L366.854 451.415L361.925 448.569C360.992 448.03 359.8 448.35 359.262 449.283C358.723 450.215 359.043 451.408 359.975 451.946L364.905 454.792L362.349 455.477C361.309 455.756 360.691 456.825 360.97 457.865C361.203 458.737 361.991 459.311 362.852 459.311C363.019 459.311 363.189 459.29 363.358 459.244L369.681 457.55L374.251 460.189V466.943L369.681 469.582L363.358 467.887C362.319 467.61 361.249 468.226 360.97 469.266C360.691 470.307 361.308 471.376 362.349 471.654L364.905 472.339L359.975 475.185C359.043 475.724 358.723 476.917 359.262 477.849C359.623 478.475 360.278 478.824 360.952 478.824C361.283 478.824 361.618 478.74 361.925 478.562L366.855 475.716L366.17 478.272C365.891 479.312 366.508 480.381 367.549 480.66C367.718 480.705 367.887 480.727 368.054 480.727C368.915 480.727 369.703 480.152 369.937 479.281L371.631 472.958L376.173 470.336L382.051 473.73V478.974L377.422 483.603C376.661 484.364 376.661 485.599 377.422 486.36C378.183 487.121 379.418 487.121 380.179 486.36L382.051 484.489V490.181C382.051 491.258 382.923 492.131 384 492.131C385.078 492.131 385.95 491.258 385.95 490.181V484.489L387.821 486.36C388.202 486.741 388.701 486.931 389.2 486.931C389.699 486.931 390.198 486.741 390.579 486.36C391.34 485.599 391.34 484.365 390.579 483.603Z" fill="#A0D7DC"/>
<path d="M408.024 475.185L403.095 472.339L405.651 471.654C406.691 471.376 407.308 470.306 407.03 469.266C406.751 468.226 405.682 467.609 404.642 467.887L398.319 469.582L393.749 466.943V460.188L398.319 457.55L404.641 459.244C404.811 459.289 404.981 459.311 405.147 459.311C406.008 459.311 406.796 458.736 407.029 457.865C407.308 456.825 406.691 455.756 405.651 455.477L403.095 454.792L408.024 451.946C408.957 451.408 409.276 450.215 408.738 449.283C408.199 448.35 407.006 448.03 406.074 448.569L401.145 451.415L401.83 448.859C402.109 447.819 401.491 446.75 400.451 446.471C399.411 446.192 398.342 446.809 398.063 447.85L396.369 454.173L391.77 456.828L384.975 452.904C384.673 452.73 384.336 452.643 384 452.643V456.844L389.849 460.222V466.976L384 470.353V474.555C384.336 474.555 384.673 474.468 384.974 474.293L391.827 470.337L396.369 472.959L398.063 479.282C398.296 480.153 399.084 480.728 399.945 480.728C400.112 480.728 400.282 480.706 400.451 480.661C401.491 480.382 402.108 479.313 401.83 478.273L401.145 475.717L406.074 478.563C406.382 478.74 406.717 478.825 407.047 478.825C407.721 478.825 408.377 478.475 408.738 477.849C409.277 476.916 408.957 475.724 408.024 475.185Z" fill="#88C8C9"/>
<defs>
<linearGradient id="paint0_linear_245_413" x1="129.746" y1="401.95" x2="129.746" y2="157.285" gradientUnits="userSpaceOnUse">
<stop stop-color="#C2BD9C"/>
<stop offset="1" stop-color="#FEF7E8"/>
</linearGradient>
<linearGradient id="paint1_linear_245_413" x1="319.041" y1="401.953" x2="319.041" y2="157.268" gradientUnits="userSpaceOnUse">
<stop stop-color="#C2BD9C"/>
<stop offset="1" stop-color="#FEF7E8"/>
</linearGradient>
<linearGradient id="paint2_linear_245_413" x1="151.289" y1="401.954" x2="151.289" y2="157.269" gradientUnits="userSpaceOnUse">
<stop stop-color="#C2BD9C"/>
<stop offset="1" stop-color="#FEF7E8"/>
</linearGradient>
<linearGradient id="paint3_linear_245_413" x1="258.157" y1="-75.6736" x2="195.895" y2="99.0618" gradientUnits="userSpaceOnUse">
<stop stop-color="#C2BD9C"/>
<stop offset="1" stop-color="#FEF7E8"/>
</linearGradient>
<linearGradient id="paint4_linear_245_413" x1="302.553" y1="401.954" x2="302.553" y2="157.27" gradientUnits="userSpaceOnUse">
<stop stop-color="#C2BD9C"/>
<stop offset="1" stop-color="#FEF7E8"/>
</linearGradient>
<linearGradient id="paint5_linear_245_413" x1="16.0466" y1="100.119" x2="621.933" y2="100.119" gradientUnits="userSpaceOnUse">
<stop stop-color="#C2BD9C"/>
<stop offset="1" stop-color="#FEF7E8"/>
</linearGradient>
<linearGradient id="paint6_linear_245_413" x1="323.645" y1="215.358" x2="655.039" y2="351.933" gradientUnits="userSpaceOnUse">
<stop stop-color="#EEE9D2"/>
<stop offset="1" stop-color="#FEF7E8"/>
</linearGradient>
</defs>
</svg>
