<svg width="511" height="511" viewBox="0 0 511 511" fill="none" xmlns="http://www.w3.org/2000/svg">
<path d="M258.373 448.122C246.59 448.122 237.036 449.517 237.036 466.258C237.036 474.389 246.589 512 258.373 512C270.157 512 279.709 474.389 279.709 466.258C279.709 449.518 270.156 448.122 258.373 448.122Z" fill="#BFB61E"/>
<path d="M352.653 422.86C342.448 428.751 334.873 434.736 343.243 449.234C347.308 456.275 374.387 484.071 384.592 478.179C394.797 472.287 384.264 434.938 380.199 427.897C371.829 413.4 362.858 416.968 352.653 422.86Z" fill="#BFB61E"/>
<path d="M448.046 344.432C433.548 336.062 427.563 343.637 421.671 353.842C415.779 364.047 412.211 373.018 426.709 381.388C433.75 385.453 471.099 395.986 476.991 385.781C482.883 375.576 455.087 348.497 448.046 344.432Z" fill="#BFB61E"/>
<path d="M465.07 238.225C448.329 238.225 446.934 247.778 446.934 259.562C446.934 271.346 448.33 280.898 465.07 280.898C473.2 280.898 510.812 271.345 510.812 259.562C510.812 247.777 473.2 238.225 465.07 238.225Z" fill="#BFB61E"/>
<path d="M426.71 137.735C412.212 146.105 415.78 155.076 421.672 165.281C427.564 175.485 433.549 183.061 448.047 174.691C455.088 170.626 482.884 143.547 476.992 133.342C471.099 123.137 433.75 133.67 426.71 137.735Z" fill="#BFB61E"/>
<path d="M164.092 422.86C153.887 416.968 144.916 413.4 136.546 427.898C132.481 434.939 121.948 472.288 132.153 478.18C142.358 484.072 169.436 456.276 173.502 449.235C181.872 434.737 174.297 428.752 164.092 422.86Z" fill="#BFB61E"/>
<path d="M424.226 259.561C424.226 213.762 405.662 172.298 375.649 142.285L141.097 376.837C171.11 406.85 212.574 425.415 258.373 425.415C349.971 425.415 424.226 351.159 424.226 259.561Z" fill="#BFB61E"/>
<path d="M164.11 96.239C153.967 102.094 145.06 105.64 136.813 91.621C136.731 91.538 136.648 91.374 136.565 91.209C132.442 84.2 121.969 46.842 132.112 40.904C139.781 36.45 157.182 51.212 166.831 61.685C170.129 65.149 172.521 68.118 173.511 69.849C181.84 84.364 174.336 90.384 164.11 96.239Z" fill="#C6BA56"/>
<path d="M279.729 52.861V53.438C279.481 69.602 269.997 71.004 258.37 71.004C249.051 71.004 241.134 70.097 238.248 61.521C237.424 59.294 237.011 56.408 237.011 52.861C237.011 47.831 240.64 31.585 246.165 19.874C249.711 12.617 253.917 7.09198 258.37 7.09198C259.689 7.09198 261.009 7.58698 262.246 8.49398C272.225 15.174 279.729 45.604 279.729 52.861Z" fill="#C6BA56"/>
<path d="M95.085 165.264C89.147 175.49 83.21 183.077 68.695 174.665C64.737 172.438 54.263 162.872 46.841 153.141C46.759 153.058 46.676 152.976 46.676 152.893C40.986 145.389 37.192 137.802 39.748 133.348C45.686 123.122 82.961 133.678 90.053 137.719C91.29 138.461 92.444 139.203 93.434 139.945C103.909 147.699 100.445 155.945 95.085 165.264Z" fill="#C6BA56"/>
<path d="M69.85 259.524C69.85 271.07 68.53 280.554 52.614 280.883H51.707C43.873 280.883 8.57701 271.976 6.10201 260.761C6.02001 260.761 6.02001 260.761 6.02001 260.761C6.02001 260.349 5.93701 259.937 5.93701 259.524C5.93701 254.988 11.627 250.7 19.049 247.319C30.76 241.794 46.758 238.248 51.706 238.248C56.407 238.248 59.87 238.99 62.427 240.31C69.108 243.773 69.85 251.113 69.85 259.524Z" fill="#C6BA56"/>
<path d="M68.7002 344.432C61.6592 348.497 33.8632 375.576 39.7552 385.781C45.6472 395.986 82.9962 385.453 90.0362 381.388C104.534 373.018 100.966 364.047 95.0742 353.842C89.1832 343.637 83.1972 336.062 68.7002 344.432Z" fill="#C6BA56"/>
<path d="M352.653 96.263C362.858 102.155 371.829 105.723 380.199 91.225C384.264 84.184 394.797 46.835 384.592 40.943C374.387 35.051 347.308 62.847 343.243 69.888C334.873 84.386 342.448 90.371 352.653 96.263Z" fill="#C6BA56"/>
<path d="M258.373 93.708C166.775 93.708 92.52 167.963 92.52 259.561C92.52 305.36 111.083 346.823 141.097 376.837L375.649 142.285C345.635 112.271 304.172 93.708 258.373 93.708Z" fill="#C6BA56"/>
<path d="M252.408 440.964C240.625 440.964 231.071 442.359 231.071 459.1C231.071 467.231 240.624 504.842 252.408 504.842C264.192 504.842 273.744 467.231 273.744 459.1C273.744 442.36 264.191 440.964 252.408 440.964Z" fill="#F0DB70"/>
<path d="M346.688 415.702C336.483 421.594 328.908 427.579 337.278 442.077C341.343 449.118 368.422 476.914 378.627 471.022C388.832 465.13 378.299 427.781 374.234 420.74C365.864 406.242 356.893 409.81 346.688 415.702Z" fill="#F0DB70"/>
<path d="M442.081 337.274C427.583 328.904 421.598 336.479 415.706 346.684C409.814 356.889 406.246 365.86 420.744 374.23C427.785 378.295 465.134 388.828 471.026 378.623C476.918 368.418 449.122 341.339 442.081 337.274Z" fill="#F0DB70"/>
<path d="M459.105 231.066C442.364 231.066 440.969 240.619 440.969 252.403C440.969 264.187 442.364 273.739 459.105 273.739C467.235 273.739 504.847 264.186 504.847 252.403C504.846 240.619 467.235 231.066 459.105 231.066Z" fill="#F0DB70"/>
<path d="M420.744 130.577C406.247 138.947 409.814 147.918 415.706 158.123C421.598 168.328 427.583 175.903 442.081 167.533C449.122 163.468 476.918 136.389 471.026 126.184C465.134 115.979 427.785 126.511 420.744 130.577Z" fill="#F0DB70"/>
<path d="M158.127 415.702C147.922 409.81 138.951 406.242 130.581 420.74C126.516 427.781 115.983 465.13 126.189 471.022C136.394 476.914 163.472 449.118 167.538 442.077C175.907 427.578 168.332 421.594 158.127 415.702Z" fill="#F0DB70"/>
<path d="M418.261 252.403C418.261 206.604 399.697 165.14 369.684 135.127L135.132 369.679C165.146 399.692 206.609 418.257 252.408 418.257C344.006 418.257 418.261 344.001 418.261 252.403Z" fill="#F0DB70"/>
<path d="M158.09 89.065C150.42 93.518 143.411 96.652 136.813 91.622C134.669 90.055 132.607 87.581 130.545 84.035C126.504 77.025 115.948 39.668 126.174 33.812C135.988 28.122 161.141 53.357 166.831 61.686C167.161 62.098 167.408 62.428 167.573 62.758C175.903 77.189 168.316 83.209 158.09 89.065Z" fill="#FBE2A7"/>
<path d="M273.709 45.687C273.709 46.264 273.709 46.842 273.626 47.337C273.049 62.511 263.812 63.83 252.432 63.83C248.144 63.83 244.185 63.665 240.804 62.593C239.897 62.346 239.072 61.934 238.248 61.521C235.526 60.119 233.382 57.81 232.228 54.099C232.145 54.016 232.228 54.016 232.228 54.016C231.486 51.789 231.073 48.986 231.073 45.687C231.073 40.822 234.537 25.235 239.897 13.607C243.113 6.597 247.072 0.99 251.278 0.165C251.69 0.083 252.02 0 252.432 0C255.979 0 259.359 3.463 262.246 8.494C263.236 10.143 264.143 11.958 265.05 13.937C270.328 25.482 273.709 40.904 273.709 45.687Z" fill="#FBE2A7"/>
<path d="M89.1468 158.09C83.2098 168.316 77.2718 175.903 62.7568 167.574C59.7878 165.842 53.1088 160.069 46.8408 153.142C46.7588 153.059 46.6758 152.977 46.6758 152.894C38.0988 143.493 30.4298 132.03 33.8108 126.175C39.6658 115.949 77.0238 126.505 84.0328 130.546C89.2278 133.597 92.1968 136.731 93.4338 139.947C95.6618 145.637 92.8578 151.658 89.1468 158.09Z" fill="#FBE2A7"/>
<path d="M63.83 252.432C63.83 264.225 62.428 273.709 45.688 273.709H45.44C40.41 273.626 25.318 270.327 13.937 265.132C11.051 263.73 8.329 262.328 6.102 260.761C6.02 260.761 6.02 260.761 6.02 260.761C2.309 258.205 0 255.401 0 252.432C0 252.102 0 251.69 0.165 251.36C0.907 247.319 5.855 243.691 12.205 240.474C23.998 234.866 40.656 231.073 45.687 231.073C47.584 231.073 49.316 231.238 50.883 231.485C57.645 232.475 60.861 235.773 62.428 240.309C62.84 241.381 63.088 242.618 63.253 243.855C63.748 246.412 63.83 249.381 63.83 252.432Z" fill="#FBE2A7"/>
<path d="M84.034 374.237C78.838 377.288 56.655 383.886 43.295 382.813C41.728 382.73 40.326 382.483 39.007 382.071C36.615 381.411 34.801 380.256 33.812 378.607C32.904 377.04 32.74 374.978 33.235 372.752C36.039 360.546 56.738 340.672 62.758 337.291C65.727 335.559 68.366 334.487 70.675 334.075C78.592 332.343 83.128 337.044 87.334 343.641C87.911 344.631 88.571 345.62 89.148 346.692C91.21 350.403 93.107 353.867 93.849 357.248C95.25 363.268 93.353 368.876 84.034 374.237Z" fill="#FBE2A7"/>
<path d="M346.688 89.104C356.893 94.996 365.864 98.564 374.234 84.066C378.299 77.025 388.832 39.676 378.627 33.784C368.422 27.892 341.343 55.688 337.278 62.729C328.908 77.228 336.483 83.213 346.688 89.104Z" fill="#FBE2A7"/>
<path d="M369.701 135.164L368.958 135.906L365.577 139.287L135.164 369.701C132.69 367.227 130.381 364.753 128.072 362.114C121.887 355.105 116.279 347.6 111.331 339.601C95.6628 314.283 86.5908 284.43 86.5908 252.433C86.5908 160.812 160.812 86.591 252.433 86.591C282.369 86.591 310.49 94.508 334.818 108.527C347.6 115.784 359.31 124.773 369.701 135.164Z" fill="#FBE2A7"/>
</svg>
