<svg width="638" height="521" viewBox="0 0 638 521" fill="none" xmlns="http://www.w3.org/2000/svg">
<path d="M152.352 345C152.352 345 125.61 355.171 117.513 374.269C113.991 382.577 116.979 390.875 122.757 396.153L157.194 361.716C155.406 352.168 152.352 345 152.352 345Z" fill="#A0D7DC"/>
<path d="M122.757 396.152C124.587 397.823 126.684 399.208 128.961 400.172C138.423 404.185 150.9 401.329 155.537 390.391C159.413 381.249 158.836 370.481 157.194 361.715L122.757 396.152Z" fill="#88C8C9"/>
<path d="M166.352 453C166.352 453 139.61 463.171 131.513 482.269C127.991 490.577 130.979 498.875 136.757 504.153L171.194 469.716C169.406 460.169 166.352 453 166.352 453Z" fill="#A0D7DC"/>
<path d="M136.757 504.151C138.587 505.822 140.684 507.207 142.959 508.172C152.422 512.184 164.898 509.329 169.537 498.391C173.413 489.249 172.836 478.481 171.194 469.715L136.757 504.151Z" fill="#88C8C9"/>
<path d="M446.352 425C446.352 425 419.61 435.171 411.513 454.269C407.991 462.577 410.979 470.875 416.757 476.153L451.194 441.716C449.406 432.168 446.352 425 446.352 425Z" fill="#A0D7DC"/>
<path d="M416.757 476.152C418.587 477.823 420.684 479.208 422.959 480.172C432.422 484.185 444.898 481.33 449.537 470.391C453.413 461.249 452.836 450.482 451.193 441.715L416.757 476.152Z" fill="#88C8C9"/>
<path d="M329.352 464C329.352 464 302.61 474.171 294.513 493.269C290.991 501.577 293.979 509.875 299.757 515.153L334.194 480.716C332.406 471.169 329.352 464 329.352 464Z" fill="#A0D7DC"/>
<path d="M299.757 515.151C301.587 516.822 303.684 518.207 305.961 519.172C315.423 523.184 327.9 520.329 332.538 509.391C336.414 500.249 335.837 489.481 334.195 480.715L299.757 515.151Z" fill="#88C8C9"/>
<path d="M399.352 339C399.352 339 372.61 349.171 364.513 368.269C360.991 376.577 363.979 384.875 369.757 390.153L404.194 355.716C402.406 346.168 399.352 339 399.352 339Z" fill="#A0D7DC"/>
<path d="M369.757 390.152C371.587 391.823 373.685 393.208 375.961 394.172C385.423 398.185 397.9 395.33 402.538 384.391C406.414 375.249 405.837 364.482 404.195 355.715L369.757 390.152Z" fill="#88C8C9"/>
<path d="M259.492 2.0087C257.483 6.98934 255.635 12.132 254.029 17.3531C248.405 16.5494 242.702 16.0684 236.836 16.0684C173.611 16.0684 122.274 67.4049 122.274 130.63C122.274 133.924 122.354 137.138 122.677 140.351L124.604 163.248L102.431 157.223C98.1735 156.018 93.8346 155.455 89.5779 155.455C87.087 155.455 84.5973 155.616 82.1064 156.017C60.4156 159.312 43.2233 177.548 41.2146 199.481C40.3311 208.8 42.179 218.12 46.4369 226.394L55.5945 243.988L36.4744 249.29C24.4234 252.584 16.0684 263.59 16.0684 276.042C16.0684 291.387 28.5206 303.839 43.865 303.839H165.577L149.51 319.906H43.865C41.2133 319.906 38.6426 319.664 36.1529 319.183C18.1568 315.969 3.85666 301.75 0.72398 283.754C0.241742 281.263 0 278.693 0 276.041C0 255.956 13.6572 238.925 32.1355 233.783C26.6726 223.259 24.021 210.967 25.2272 197.953C27.8776 168.791 50.6948 144.528 79.6964 140.11C89.0969 138.744 98.2545 139.387 106.61 141.717C106.368 138.021 106.127 134.325 106.127 130.63C106.127 58.4866 164.694 0 236.838 0C244.55 0 252.182 0.722734 259.492 2.0087Z" fill="url(#paint0_linear_251_2)"/>
<path d="M346.273 96.6315L351.553 113.652L358.895 110.512L384.024 85.383C376.213 86.6814 368.696 88.8484 361.621 91.8726C347.293 45.67 308 10.484 259.522 1.98193C257.474 6.99995 255.652 12.1289 254.056 17.3612C297.126 23.7973 333.058 54.0076 346.273 96.6315Z" fill="#F0DB70"/>
<path d="M346.273 96.6315L351.553 113.652L358.895 110.512L384.024 85.383C376.213 86.6814 368.696 88.8484 361.621 91.8726C347.293 45.67 308 10.484 259.522 1.98193C257.474 6.99995 255.652 12.1289 254.056 17.3612C297.126 23.7973 333.058 54.0076 346.273 96.6315Z" fill="url(#paint1_linear_251_2)"/>
<path d="M246.578 81.5479C245.16 59.1021 247.918 37.4935 254.057 17.3617C248.416 16.518 242.664 16.0396 236.813 16.0396C173.633 16.0396 122.237 67.4434 122.237 130.623C122.237 133.903 122.386 137.146 122.653 140.355L124.576 163.259L102.404 157.195C98.1985 156.046 93.8684 155.461 89.5457 155.461C87.0821 155.461 84.58 155.653 82.1164 156.026C60.3995 159.317 43.1872 177.577 41.1947 199.443C40.3312 208.815 42.1517 218.127 46.4358 226.378L55.5759 243.968L36.4795 249.271C24.4522 252.609 16.0498 263.621 16.0498 276.047C16.0498 291.369 28.5157 303.836 43.8464 303.836H165.574L286.533 182.878C263.654 154.736 248.99 119.708 246.578 81.5479Z" fill="url(#paint2_linear_251_2)"/>
<path opacity="0.3" d="M246.578 81.5479C245.16 59.1021 247.918 37.4935 254.057 17.3617C248.416 16.518 242.664 16.0396 236.813 16.0396C173.633 16.0396 122.237 67.4434 122.237 130.623C122.237 133.903 122.386 137.146 122.653 140.355L124.576 163.259L102.404 157.195C98.1985 156.046 93.8684 155.461 89.5457 155.461C87.0821 155.461 84.58 155.653 82.1164 156.026C60.3995 159.317 43.1872 177.577 41.1947 199.443C40.3312 208.815 42.1517 218.127 46.4358 226.378L55.5759 243.968L36.4795 249.271C24.4522 252.609 16.0498 263.621 16.0498 276.047C16.0498 291.369 28.5157 303.836 43.8464 303.836H165.574L286.533 182.878C263.654 154.736 248.99 119.708 246.578 81.5479Z" fill="url(#paint3_linear_251_2)"/>
<path d="M246.578 81.5478C248.989 119.708 263.655 154.736 286.532 182.878L358.896 110.513L351.554 113.653L346.274 96.633C333.059 54.0104 297.127 23.7989 254.058 17.3628C247.918 37.4934 245.16 59.1007 246.578 81.5478Z" fill="#F0DB70"/>
<path d="M246.578 81.5478C248.989 119.708 263.655 154.736 286.532 182.878L358.896 110.513L351.554 113.653L346.274 96.633C333.059 54.0104 297.127 23.7989 254.058 17.3628C247.918 37.4934 245.16 59.1007 246.578 81.5478Z" fill="url(#paint4_linear_251_2)"/>
<path opacity="0.3" d="M246.578 81.5478C248.989 119.708 263.655 154.736 286.532 182.878L358.896 110.513L351.554 113.653L346.274 96.633C333.059 54.0104 297.127 23.7989 254.058 17.3628C247.918 37.4934 245.16 59.1007 246.578 81.5478Z" fill="url(#paint5_linear_251_2)"/>
<path d="M638 276.045C638 251.923 618.264 232.188 594.143 232.188H503.397C489.109 239.01 473.789 243.994 457.721 246.852L456.895 248.254H594.145C609.467 248.254 621.934 260.72 621.934 276.046C621.934 291.368 609.467 303.836 594.145 303.836H165.571L149.504 319.903H594.143C618.264 319.903 638 300.167 638 276.045Z" fill="#DFDBCB"/>
<path d="M497.803 169.819C492.433 126.33 457.86 91.0854 414.467 84.9945C403.977 83.5216 393.767 83.7634 384.024 85.3833L358.895 110.512L367.934 106.647C378.157 102.277 389.031 100.06 400.242 100.06C404.212 100.06 408.244 100.343 412.229 100.903C448.13 105.944 477.41 135.753 481.85 171.787C484.132 190.236 480.438 208.3 471.164 224.031L457.719 246.852C473.786 243.995 489.107 239.009 503.395 232.188H485.008C495.577 214.262 500.628 192.697 497.803 169.819Z" fill="#F4F4C5"/>
<path d="M594.144 248.254H456.896L457.722 246.852L471.167 224.031C480.44 208.301 484.135 190.237 481.852 171.787C477.411 135.753 448.132 105.944 412.232 100.903C408.247 100.343 404.213 100.06 400.244 100.06C389.033 100.06 378.16 102.277 367.937 106.647L358.898 110.512L286.533 182.876L165.574 303.835H594.147C609.469 303.835 621.936 291.368 621.936 276.046C621.933 260.72 609.467 248.254 594.144 248.254Z" fill="url(#paint6_linear_251_2)"/>
<path d="M340.103 308.461C340.427 303.293 338.985 299.501 336.418 298.776L296.969 287.635L333.859 199.111C336.298 193.26 336.725 186.569 334.895 182.904C333.065 179.24 329.449 179.548 326.138 183.651L305.359 209.398L210.659 326.742C207.826 330.251 205.795 335.835 205.471 341.003C205.147 346.171 206.589 349.962 209.156 350.687L248.605 361.828L211.715 450.353C209.277 456.204 208.849 462.895 210.68 466.56C211.344 467.889 212.242 468.696 213.277 468.988C215.093 469.501 217.327 468.427 219.436 465.812L240.215 440.066L334.915 322.722C337.748 319.212 339.779 313.629 340.103 308.461Z" fill="#8A94A0"/>
<path d="M209.156 350.688L248.605 361.829L211.715 450.354C209.276 456.205 208.848 462.896 210.679 466.56C211.344 467.89 212.242 468.696 213.277 468.988C215.093 469.501 217.326 468.428 219.436 465.813L240.214 440.066L305.359 209.398L210.659 326.742C207.826 330.252 205.795 335.835 205.471 341.003C205.147 346.172 206.589 349.963 209.156 350.688Z" fill="#AFB8BF"/>
<defs>
<linearGradient id="paint0_linear_251_2" x1="129.746" y1="401.95" x2="129.746" y2="157.285" gradientUnits="userSpaceOnUse">
<stop stop-color="#C2BD9C"/>
<stop offset="1" stop-color="#FEF7E8"/>
</linearGradient>
<linearGradient id="paint1_linear_251_2" x1="319.041" y1="401.953" x2="319.041" y2="157.268" gradientUnits="userSpaceOnUse">
<stop stop-color="#C2BD9C"/>
<stop offset="1" stop-color="#FEF7E8"/>
</linearGradient>
<linearGradient id="paint2_linear_251_2" x1="151.289" y1="401.954" x2="151.289" y2="157.269" gradientUnits="userSpaceOnUse">
<stop stop-color="#C2BD9C"/>
<stop offset="1" stop-color="#FEF7E8"/>
</linearGradient>
<linearGradient id="paint3_linear_251_2" x1="258.157" y1="-75.6736" x2="195.895" y2="99.0618" gradientUnits="userSpaceOnUse">
<stop stop-color="#C2BD9C"/>
<stop offset="1" stop-color="#FEF7E8"/>
</linearGradient>
<linearGradient id="paint4_linear_251_2" x1="302.553" y1="401.954" x2="302.553" y2="157.27" gradientUnits="userSpaceOnUse">
<stop stop-color="#C2BD9C"/>
<stop offset="1" stop-color="#FEF7E8"/>
</linearGradient>
<linearGradient id="paint5_linear_251_2" x1="16.0466" y1="100.119" x2="621.933" y2="100.119" gradientUnits="userSpaceOnUse">
<stop stop-color="#C2BD9C"/>
<stop offset="1" stop-color="#FEF7E8"/>
</linearGradient>
<linearGradient id="paint6_linear_251_2" x1="323.645" y1="215.358" x2="655.039" y2="351.933" gradientUnits="userSpaceOnUse">
<stop stop-color="#EEE9D2"/>
<stop offset="1" stop-color="#FEF7E8"/>
</linearGradient>
</defs>
</svg>
