<svg width="638" height="438" viewBox="0 0 638 438" fill="none" xmlns="http://www.w3.org/2000/svg">
<path d="M259.492 2.0087C257.483 6.98934 255.635 12.132 254.029 17.3531C248.405 16.5494 242.702 16.0684 236.836 16.0684C173.611 16.0684 122.274 67.4049 122.274 130.63C122.274 133.924 122.354 137.138 122.677 140.351L124.604 163.248L102.431 157.223C98.1735 156.018 93.8346 155.455 89.5779 155.455C87.087 155.455 84.5973 155.616 82.1064 156.017C60.4156 159.312 43.2233 177.548 41.2146 199.481C40.3311 208.8 42.179 218.12 46.4369 226.394L55.5945 243.988L36.4744 249.29C24.4234 252.584 16.0684 263.59 16.0684 276.042C16.0684 291.387 28.5206 303.839 43.865 303.839H165.577L149.51 319.906H43.865C41.2133 319.906 38.6426 319.664 36.1529 319.183C18.1568 315.969 3.85666 301.75 0.72398 283.754C0.241742 281.263 0 278.693 0 276.041C0 255.956 13.6572 238.925 32.1355 233.783C26.6726 223.259 24.021 210.967 25.2272 197.953C27.8776 168.791 50.6948 144.528 79.6964 140.11C89.097 138.744 98.2545 139.387 106.61 141.717C106.368 138.021 106.127 134.325 106.127 130.63C106.127 58.4866 164.694 0 236.838 0C244.55 0 252.182 0.722734 259.492 2.0087Z" fill="url(#paint0_linear_247_65)"/>
<path d="M346.273 96.6316L351.553 113.652L358.895 110.512L384.024 85.3831C376.213 86.6815 368.696 88.8485 361.621 91.8728C347.293 45.6701 308 10.4842 259.522 1.98206C257.474 7.00008 255.652 12.129 254.056 17.3613C297.126 23.7974 333.058 54.0077 346.273 96.6316Z" fill="#F0DB70"/>
<path d="M346.273 96.6316L351.553 113.652L358.895 110.512L384.024 85.3831C376.213 86.6815 368.696 88.8485 361.621 91.8728C347.293 45.6701 308 10.4842 259.522 1.98206C257.474 7.00008 255.652 12.129 254.056 17.3613C297.126 23.7974 333.058 54.0077 346.273 96.6316Z" fill="url(#paint1_linear_247_65)"/>
<path d="M246.578 81.5479C245.16 59.1021 247.918 37.4935 254.057 17.3617C248.416 16.518 242.664 16.0396 236.813 16.0396C173.633 16.0396 122.237 67.4434 122.237 130.623C122.237 133.903 122.386 137.146 122.653 140.355L124.576 163.259L102.404 157.195C98.1985 156.046 93.8684 155.461 89.5457 155.461C87.0821 155.461 84.58 155.653 82.1165 156.026C60.3995 159.317 43.1872 177.577 41.1947 199.443C40.3312 208.815 42.1517 218.127 46.4358 226.378L55.5759 243.968L36.4795 249.271C24.4522 252.609 16.0498 263.621 16.0498 276.047C16.0498 291.369 28.5157 303.836 43.8464 303.836H165.574L286.533 182.878C263.654 154.736 248.99 119.708 246.578 81.5479Z" fill="url(#paint2_linear_247_65)"/>
<path opacity="0.3" d="M246.578 81.5479C245.16 59.1021 247.918 37.4935 254.057 17.3617C248.416 16.518 242.664 16.0396 236.813 16.0396C173.633 16.0396 122.237 67.4434 122.237 130.623C122.237 133.903 122.386 137.146 122.653 140.355L124.576 163.259L102.404 157.195C98.1985 156.046 93.8684 155.461 89.5457 155.461C87.0821 155.461 84.58 155.653 82.1165 156.026C60.3995 159.317 43.1872 177.577 41.1947 199.443C40.3312 208.815 42.1517 218.127 46.4358 226.378L55.5759 243.968L36.4795 249.271C24.4522 252.609 16.0498 263.621 16.0498 276.047C16.0498 291.369 28.5157 303.836 43.8464 303.836H165.574L286.533 182.878C263.654 154.736 248.99 119.708 246.578 81.5479Z" fill="url(#paint3_linear_247_65)"/>
<path d="M246.578 81.5478C248.989 119.708 263.655 154.736 286.532 182.878L358.896 110.513L351.554 113.653L346.274 96.633C333.059 54.0104 297.127 23.7989 254.058 17.3628C247.918 37.4934 245.16 59.1007 246.578 81.5478Z" fill="#F0DB70"/>
<path d="M246.578 81.5478C248.989 119.708 263.655 154.736 286.532 182.878L358.896 110.513L351.554 113.653L346.274 96.633C333.059 54.0104 297.127 23.7989 254.058 17.3628C247.918 37.4934 245.16 59.1007 246.578 81.5478Z" fill="url(#paint4_linear_247_65)"/>
<path opacity="0.3" d="M246.578 81.5478C248.989 119.708 263.655 154.736 286.532 182.878L358.896 110.513L351.554 113.653L346.274 96.633C333.059 54.0104 297.127 23.7989 254.058 17.3628C247.918 37.4934 245.16 59.1007 246.578 81.5478Z" fill="url(#paint5_linear_247_65)"/>
<path d="M638 276.045C638 251.923 618.264 232.188 594.143 232.188H503.397C489.109 239.01 473.789 243.994 457.721 246.852L456.895 248.254H594.145C609.467 248.254 621.934 260.72 621.934 276.046C621.934 291.368 609.467 303.836 594.145 303.836H165.571L149.504 319.903H594.143C618.264 319.903 638 300.167 638 276.045Z" fill="#DFDBCB"/>
<path d="M497.803 169.819C492.433 126.33 457.86 91.0854 414.467 84.9945C403.977 83.5216 393.767 83.7634 384.024 85.3833L358.895 110.512L367.934 106.647C378.157 102.277 389.031 100.06 400.242 100.06C404.212 100.06 408.244 100.343 412.229 100.903C448.13 105.944 477.41 135.753 481.85 171.787C484.132 190.236 480.438 208.3 471.164 224.031L457.719 246.852C473.786 243.995 489.107 239.009 503.395 232.188H485.008C495.577 214.262 500.628 192.697 497.803 169.819Z" fill="#F4F4C5"/>
<path d="M594.144 248.254H456.896L457.722 246.852L471.167 224.031C480.44 208.301 484.135 190.237 481.852 171.787C477.411 135.753 448.132 105.944 412.232 100.903C408.247 100.343 404.213 100.06 400.244 100.06C389.033 100.06 378.16 102.277 367.937 106.647L358.898 110.512L286.533 182.876L165.574 303.835H594.147C609.469 303.835 621.936 291.368 621.936 276.046C621.933 260.72 609.467 248.254 594.144 248.254Z" fill="url(#paint6_linear_247_65)"/>
<path d="M370.974 260.154C370.974 236.362 343.847 217 310.513 217C306.805 217 303.795 219.148 303.795 221.795C303.795 224.442 306.805 226.59 310.513 226.59C336.444 226.59 357.538 241.646 357.538 260.154C357.538 268.032 353.689 275.267 347.307 280.997C349.242 284.33 350.854 287.782 352.265 291.292C363.766 283.433 370.974 272.39 370.974 260.154Z" fill="#8A94A0"/>
<path d="M357.538 351.256H348.912C347.192 354.541 345.251 357.744 343.047 360.846H357.538C383.469 360.846 404.564 375.902 404.564 394.41C404.564 412.918 383.469 427.974 357.538 427.974C353.83 427.974 350.82 430.122 350.82 432.769C350.82 435.416 353.83 437.564 357.538 437.564C390.872 437.564 417.999 418.202 417.999 394.41C417.999 370.618 390.872 351.256 357.538 351.256Z" fill="#8A94A0"/>
<path d="M330.667 260.154C330.667 260.207 330.647 260.254 330.647 260.307C334.187 263.678 337.485 267.188 340.388 270.885C342.685 267.639 344.103 264.028 344.103 260.154C344.103 246.934 329.034 236.179 310.513 236.179C306.032 236.179 301.766 236.836 297.85 237.978C302.841 240.365 307.517 243.046 312.011 245.875C322.417 246.436 330.667 252.587 330.667 260.154Z" fill="#8A94A0"/>
<path d="M391.128 394.41C391.128 381.191 376.059 370.436 357.538 370.436C353.83 370.436 350.82 372.584 350.82 375.231C350.82 377.877 353.83 380.026 357.538 380.026C368.649 380.026 377.692 386.479 377.692 394.41C377.692 402.341 368.649 408.795 357.538 408.795C346.426 408.795 337.384 402.341 337.384 394.41C337.384 391.763 334.374 389.615 330.666 389.615C326.958 389.615 323.948 391.763 323.948 394.41C323.948 407.63 339.017 418.384 357.538 418.384C376.059 418.384 391.128 407.63 391.128 394.41Z" fill="#8A94A0"/>
<path d="M357.203 322.487H370.974C374.683 322.487 377.692 320.339 377.692 317.692C377.692 315.045 374.683 312.897 370.974 312.897H357.203C357.317 314.494 357.539 316.072 357.539 317.692C357.539 319.313 357.31 320.89 357.203 322.487Z" fill="#8A94A0"/>
<path d="M411.282 341.667C414.99 341.667 418 339.519 418 336.872C418 334.225 414.99 332.077 411.282 332.077H355.866C355.18 335.333 354.267 338.526 353.131 341.667H411.282Z" fill="#8A94A0"/>
<path d="M352.258 291.292C350.847 287.782 349.242 284.33 347.3 280.997C340.125 287.432 329.713 291.915 317.849 293.258C319.38 296.274 320.704 299.357 321.658 302.545C333.407 300.968 343.955 296.969 352.258 291.292Z" fill="#93A3C5"/>
<path d="M312.273 351.256C309.773 354.632 306.851 357.816 303.66 360.846H343.047C345.244 357.744 347.186 354.541 348.912 351.256H312.273Z" fill="#93A3C5"/>
<path d="M290.359 260.154C290.359 252.223 299.401 245.769 310.513 245.769C311.023 245.769 311.507 245.851 312.011 245.88C307.523 243.046 302.847 240.37 297.849 237.982C286.879 241.185 278.831 248.411 277.252 257.076C281.289 258.917 285.139 260.94 288.76 263.16C289.714 262.326 290.359 261.309 290.359 260.154Z" fill="#93A3C5"/>
<path d="M310.513 274.538C308.464 274.538 306.697 275.229 305.461 276.26C307.926 278.748 310.197 281.333 312.212 284.037C324.56 283.586 335.094 278.355 340.388 270.88C337.485 267.183 334.187 263.678 330.647 260.302C330.526 268.166 321.55 274.538 310.513 274.538Z" fill="#93A3C5"/>
<path d="M276.923 380.026H317.231C320.939 380.026 323.949 377.877 323.949 375.231C323.949 372.584 320.939 370.436 317.231 370.436H291.528C286.254 373.917 280.477 376.995 274.25 379.618C275.069 379.877 275.969 380.026 276.923 380.026Z" fill="#93A3C5"/>
<path d="M323.613 322.487H357.203C357.317 320.89 357.539 319.313 357.539 317.692C357.539 316.072 357.31 314.494 357.203 312.897H323.613C323.761 314.489 323.949 316.072 323.949 317.692C323.949 319.313 323.754 320.895 323.613 322.487Z" fill="#93A3C5"/>
<path d="M353.131 341.667C354.266 338.526 355.173 335.333 355.865 332.077H321.926C320.986 335.371 319.635 338.55 318.09 341.667H353.131Z" fill="#93A3C5"/>
<path d="M189.59 293.718C185.881 293.718 182.872 295.866 182.872 298.513C182.872 301.16 185.881 303.308 189.59 303.308H310.513C314.328 303.308 318.05 303.034 321.664 302.545C320.704 299.357 319.38 296.274 317.855 293.258C315.457 293.531 313.018 293.718 310.513 293.718H189.59Z" fill="#AFB8BF"/>
<path d="M223.179 351.256C219.471 351.256 216.461 353.404 216.461 356.051C216.461 358.698 219.471 360.846 223.179 360.846H303.66C306.858 357.816 309.774 354.632 312.273 351.256H223.179Z" fill="#AFB8BF"/>
<path d="M283.641 264.949C285.73 264.949 287.53 264.225 288.76 263.155C285.139 260.935 281.296 258.912 277.252 257.071C277.071 258.083 276.923 259.104 276.923 260.154C276.923 262.801 279.932 264.949 283.641 264.949Z" fill="#93A3C5"/>
<path d="M303.795 279.333C303.795 281.98 306.805 284.128 310.513 284.128C311.091 284.128 311.641 284.061 312.212 284.042C310.197 281.333 307.926 278.748 305.461 276.265C304.46 277.099 303.795 278.149 303.795 279.333Z" fill="#93A3C5"/>
<path d="M270.205 375.231C270.205 377.197 271.871 378.88 274.249 379.618C280.477 376.995 286.254 373.917 291.528 370.436H276.923C273.215 370.436 270.205 372.584 270.205 375.231Z" fill="#93A3C5"/>
<path d="M243.334 284.128H283.641C287.35 284.128 290.359 281.98 290.359 279.333C290.359 276.687 287.35 274.538 283.641 274.538H243.334C239.625 274.538 236.616 276.687 236.616 279.333C236.616 281.98 239.625 284.128 243.334 284.128Z" fill="#AFB8BF"/>
<path d="M156 317.692C156 320.339 159.01 322.487 162.718 322.487H323.613C323.761 320.895 323.949 319.313 323.949 317.692C323.949 316.072 323.754 314.489 323.613 312.897H162.718C159.01 312.897 156 315.045 156 317.692Z" fill="#AFB8BF"/>
<path d="M182.872 336.872C182.872 339.519 185.881 341.667 189.59 341.667H318.09C319.635 338.55 320.986 335.371 321.926 332.077H189.59C185.881 332.077 182.872 334.225 182.872 336.872Z" fill="#AFB8BF"/>
<defs>
<linearGradient id="paint0_linear_247_65" x1="129.746" y1="401.95" x2="129.746" y2="157.285" gradientUnits="userSpaceOnUse">
<stop stop-color="#C2BD9C"/>
<stop offset="1" stop-color="#FEF7E8"/>
</linearGradient>
<linearGradient id="paint1_linear_247_65" x1="319.041" y1="401.953" x2="319.041" y2="157.268" gradientUnits="userSpaceOnUse">
<stop stop-color="#C2BD9C"/>
<stop offset="1" stop-color="#FEF7E8"/>
</linearGradient>
<linearGradient id="paint2_linear_247_65" x1="151.289" y1="401.954" x2="151.289" y2="157.269" gradientUnits="userSpaceOnUse">
<stop stop-color="#C2BD9C"/>
<stop offset="1" stop-color="#FEF7E8"/>
</linearGradient>
<linearGradient id="paint3_linear_247_65" x1="258.157" y1="-75.6736" x2="195.895" y2="99.0618" gradientUnits="userSpaceOnUse">
<stop stop-color="#C2BD9C"/>
<stop offset="1" stop-color="#FEF7E8"/>
</linearGradient>
<linearGradient id="paint4_linear_247_65" x1="302.553" y1="401.954" x2="302.553" y2="157.27" gradientUnits="userSpaceOnUse">
<stop stop-color="#C2BD9C"/>
<stop offset="1" stop-color="#FEF7E8"/>
</linearGradient>
<linearGradient id="paint5_linear_247_65" x1="16.0466" y1="100.119" x2="621.933" y2="100.119" gradientUnits="userSpaceOnUse">
<stop stop-color="#C2BD9C"/>
<stop offset="1" stop-color="#FEF7E8"/>
</linearGradient>
<linearGradient id="paint6_linear_247_65" x1="323.645" y1="215.358" x2="655.039" y2="351.933" gradientUnits="userSpaceOnUse">
<stop stop-color="#EEE9D2"/>
<stop offset="1" stop-color="#FEF7E8"/>
</linearGradient>
</defs>
</svg>
